# xmcd
#
# Track frame offsets:
#	150
#	12363
#	28261
#	40947
#	62615
#	79474
#	92363
#	107532
#	124202
#	141250
#	158016
#	175126
#	190524
#	206080
#	220738
#	238422
#	253991
#	269705
#	284302
#	300906
#
# Disc length: 4271 seconds
#
# Revision: 1
# Processed by: cddbd v1.5.1PL0 Copyright (c) Steve Scherf et al.
# Submitted via: audiograbber 1.83.01
#
DISCID=2110ad14
DTITLE=Various Artist - RC35
DYEAR=1996
DGENRE=Country
TTITLE0=Neal McCoy - You Gotta Love That
TTITLE1=Patty Loveless - You Can Feel Bad
TTITLE2=Lonestar - No News
TTITLE3=Wynonna - To Be Loved By You
TTITLE4=Clay Walker - Hypnotize The Moon
TTITLE5=Daryle Singletary - Too Much Fun
TTITLE6=Linda Davis - Some Things Are Meant To Be
TTITLE7=Lee Roy Parnell - Heart's Desire
TTITLE8=Pam Tillis - The River And The Highway
TTITLE9=Shania Twain - You Win My Love
TTITLE10=Mavericks - All You Ever Do Is Bring Me Down
TTITLE11=Jo Dee Messina - Heads Carolina Tails California
TTITLE12=Tracy Byrd - Heaven In My Woman's Eyes
TTITLE13=Lari White - Ready Willing And Able
TTITLE14=Diamond Rio - Walkin's Away
TTITLE15=Billy Dean - It's What I Do
TTITLE16=Tim McGraw - All I Want Is A Life
TTITLE17=Mark Chesnutt - It Wouldn't Hurt To Have Wings
TTITLE18=Ricochet - What Do I Know
TTITLE19=John Michael Montgomery - Long As I Live
EXTD=
EXTT0=
EXTT1=
EXTT2=
EXTT3=
EXTT4=
EXTT5=
EXTT6=
EXTT7=
EXTT8=
EXTT9=
EXTT10=
EXTT11=
EXTT12=
EXTT13=
EXTT14=
EXTT15=
EXTT16=
EXTT17=
EXTT18=
EXTT19=
PLAYORDER=
